<?xml version="1.0" encoding="utf-8"?>
<!-- Generator: Adobe Illustrator 26.3.1, SVG Export Plug-In . SVG Version: 6.00 Build 0)  -->
<svg version="1.1" id="Layer_2_00000162334725908886247430000008538128052918088355_"
	 xmlns="http://www.w3.org/2000/svg" xmlns:xlink="http://www.w3.org/1999/xlink" x="0px" y="0px" viewBox="0 0 507.1 28"
	 style="enable-background:new 0 0 507.1 28;" xml:space="preserve">
<style type="text/css">
	.st0{enable-background:new    ;}
	.st1{fill:#283C4F;}
</style>
<g id="Layer_1-2">
	<g class="st0">
		<path class="st1" d="M53.1,10.1h-4.5c-0.2,0-0.4,0.1-0.5,0.2c-0.1,0.1-0.2,0.3-0.2,0.5v16c0,0.2-0.1,0.4-0.2,0.5s-0.3,0.2-0.6,0.2
			h-4.8c-0.2,0-0.4-0.1-0.5-0.2c-0.1-0.1-0.2-0.3-0.2-0.5v-16c0-0.2-0.1-0.4-0.2-0.5s-0.3-0.2-0.6-0.2h-4.5c-0.2,0-0.4-0.1-0.5-0.2
			c-0.1-0.1-0.2-0.3-0.2-0.5V5c0-0.2,0.1-0.4,0.2-0.5c0.1-0.1,0.3-0.2,0.5-0.2h16.9c0.2,0,0.4,0.1,0.6,0.2c0.1,0.1,0.2,0.3,0.2,0.5
			v4.4c0,0.2-0.1,0.4-0.2,0.5C53.5,10,53.3,10.1,53.1,10.1z"/>
		<path class="st1" d="M77.2,5v21.9c0,0.2-0.1,0.4-0.2,0.5c-0.1,0.1-0.3,0.2-0.5,0.2h-4.8c-0.2,0-0.4-0.1-0.6-0.2s-0.2-0.3-0.2-0.5
			V20c0-0.2-0.1-0.4-0.2-0.5c-0.1-0.1-0.3-0.2-0.5-0.2h-6.6c-0.2,0-0.4,0.1-0.6,0.2c-0.1,0.1-0.2,0.3-0.2,0.5v6.8
			c0,0.2-0.1,0.4-0.2,0.5s-0.3,0.2-0.5,0.2h-4.8c-0.2,0-0.4-0.1-0.6-0.2c-0.1-0.1-0.2-0.3-0.2-0.5V5c0-0.2,0.1-0.4,0.2-0.5
			c0.1-0.1,0.3-0.2,0.6-0.2H62c0.2,0,0.4,0.1,0.5,0.2c0.1,0.1,0.2,0.3,0.2,0.5v7.6c0,0.2,0.1,0.4,0.2,0.5c0.1,0.1,0.3,0.2,0.6,0.2
			h6.6c0.2,0,0.4-0.1,0.5-0.2c0.1-0.1,0.2-0.3,0.2-0.5V5c0-0.2,0.1-0.4,0.2-0.5c0.1-0.1,0.3-0.2,0.6-0.2h4.8c0.2,0,0.4,0.1,0.5,0.2
			C77.1,4.6,77.2,4.8,77.2,5z"/>
		<path class="st1" d="M81.9,5c0-0.2,0.1-0.4,0.2-0.5c0.1-0.1,0.3-0.2,0.5-0.2h4.8c0.2,0,0.4,0.1,0.5,0.2s0.2,0.3,0.2,0.5v13
			c0,0.8,0.1,1.5,0.4,2.1s0.6,1,1,1.3c0.4,0.3,0.8,0.5,1.3,0.7s0.9,0.2,1.2,0.2c0.4,0,0.8-0.1,1.2-0.2c0.5-0.1,0.9-0.3,1.3-0.7
			c0.4-0.3,0.7-0.7,1-1.3c0.3-0.5,0.4-1.2,0.4-2.1V5c0-0.2,0.1-0.4,0.2-0.5c0.1-0.1,0.3-0.2,0.5-0.2h4.8c0.2,0,0.4,0.1,0.5,0.2
			s0.2,0.3,0.2,0.5v13c0,1.5-0.2,2.9-0.7,4.1s-1.2,2.3-2.1,3.2c-0.9,0.9-2,1.6-3.2,2c-1.3,0.5-2.7,0.7-4.2,0.7
			c-1.5,0-2.9-0.2-4.2-0.7c-1.3-0.5-2.3-1.2-3.2-2c-0.9-0.9-1.6-1.9-2.1-3.2c-0.5-1.2-0.7-2.6-0.7-4.1V5z"/>
		<path class="st1" d="M133.2,5v21.9c0,0.2-0.1,0.4-0.2,0.5c-0.1,0.1-0.3,0.2-0.5,0.2h-4.8c-0.2,0-0.4-0.1-0.5-0.2s-0.2-0.3-0.2-0.5
			V16.6c0-0.2-0.1-0.3-0.3-0.4c-0.2,0-0.4,0.1-0.5,0.2l-5.4,8.7c-0.1,0.2-0.3,0.3-0.5,0.3c-0.2,0-0.4-0.1-0.5-0.3l-5.4-8.7
			c-0.1-0.2-0.3-0.2-0.4-0.2c-0.2,0-0.3,0.1-0.3,0.4v10.3c0,0.2-0.1,0.4-0.2,0.5s-0.3,0.2-0.5,0.2H108c-0.2,0-0.4-0.1-0.5-0.2
			s-0.2-0.3-0.2-0.5V5c0-0.2,0.1-0.4,0.2-0.5c0.1-0.1,0.3-0.2,0.5-0.2h4.5c0.2,0,0.4,0.1,0.7,0.2c0.2,0.1,0.4,0.3,0.5,0.4l6.2,9
			c0.1,0.2,0.3,0.3,0.4,0.3s0.3-0.1,0.4-0.3l6.2-9c0.1-0.2,0.3-0.3,0.5-0.4c0.2-0.1,0.5-0.2,0.7-0.2h4.5c0.2,0,0.4,0.1,0.5,0.2
			C133.2,4.6,133.2,4.8,133.2,5z"/>
		<path class="st1" d="M154.4,15.6c0.3,0.2,0.7,0.4,1,0.7c0.3,0.3,0.7,0.6,0.9,1c0.3,0.4,0.5,0.9,0.7,1.4c0.2,0.5,0.3,1.1,0.3,1.8
			c0,1.4-0.2,2.5-0.7,3.4c-0.4,0.9-1,1.6-1.8,2.2c-0.7,0.5-1.6,0.9-2.6,1.2s-2,0.3-3.1,0.3h-10.1c-0.2,0-0.4-0.1-0.5-0.2
			c-0.1-0.1-0.2-0.3-0.2-0.5V5c0-0.2,0.1-0.4,0.2-0.5c0.1-0.1,0.3-0.2,0.5-0.2h9.7c1,0,2,0.1,2.9,0.3c0.9,0.2,1.8,0.6,2.5,1.1
			c0.7,0.5,1.3,1.2,1.7,2c0.4,0.8,0.7,1.8,0.7,3c0,1-0.2,1.8-0.7,2.5s-1,1.3-1.6,1.7C153.9,15.1,153.9,15.4,154.4,15.6z M145.4,13.1
			h3c0.4,0,0.8-0.2,1-0.5c0.3-0.3,0.4-0.7,0.4-1.1c0-0.4-0.2-0.7-0.5-1c-0.3-0.3-0.6-0.4-0.9-0.4h-3c-0.2,0-0.4,0.1-0.5,0.2
			c-0.1,0.1-0.2,0.3-0.2,0.5v1.5c0,0.2,0.1,0.4,0.2,0.5C145,13,145.2,13.1,145.4,13.1z M148.8,18.4h-3.4c-0.2,0-0.4,0.1-0.5,0.2
			c-0.1,0.2-0.2,0.3-0.2,0.5V21c0,0.2,0.1,0.4,0.2,0.5c0.1,0.1,0.3,0.2,0.5,0.2h3.6c0.4,0,0.7-0.2,1.1-0.5s0.5-0.7,0.5-1.1
			c0-0.4-0.2-0.8-0.5-1.2C149.8,18.6,149.3,18.4,148.8,18.4z"/>
		<path class="st1" d="M182.8,5v21.9c0,0.2-0.1,0.4-0.2,0.5s-0.3,0.2-0.5,0.2h-4.7c-0.2,0-0.4-0.1-0.7-0.2s-0.4-0.3-0.5-0.4
			l-8.3-11.7c-0.1-0.2-0.3-0.2-0.4-0.2c-0.1,0-0.2,0.2-0.2,0.4v11.5c0,0.2-0.1,0.4-0.2,0.5s-0.3,0.2-0.5,0.2h-4.8
			c-0.2,0-0.4-0.1-0.5-0.2s-0.2-0.3-0.2-0.5V5c0-0.2,0.1-0.4,0.2-0.5c0.1-0.1,0.3-0.2,0.5-0.2h4.8c0.2,0,0.4,0.1,0.7,0.2
			c0.2,0.1,0.4,0.3,0.5,0.4l8.3,11.7c0.1,0.2,0.3,0.2,0.4,0.2c0.1,0,0.2-0.1,0.2-0.4V5c0-0.2,0.1-0.4,0.2-0.5
			c0.1-0.1,0.3-0.2,0.5-0.2h4.7c0.2,0,0.4,0.1,0.5,0.2C182.7,4.6,182.8,4.8,182.8,5z"/>
		<path class="st1" d="M194.5,4.9c0.1-0.2,0.2-0.4,0.4-0.5s0.4-0.2,0.7-0.2h4.5c0.2,0,0.4,0.1,0.6,0.2c0.2,0.1,0.3,0.3,0.4,0.5
			l9.3,21.8c0.1,0.2,0.1,0.4,0,0.6c-0.1,0.2-0.3,0.3-0.7,0.3h-5.5c-0.2,0-0.5-0.1-0.7-0.2c-0.2-0.1-0.4-0.3-0.5-0.5l-0.9-1.9
			c-0.1-0.2-0.3-0.4-0.5-0.5c-0.2-0.1-0.4-0.2-0.6-0.2h-6.8c-0.2,0-0.5,0.1-0.7,0.2c-0.2,0.1-0.3,0.3-0.4,0.5l-0.9,1.9
			c-0.1,0.2-0.2,0.4-0.4,0.5c-0.2,0.1-0.4,0.2-0.6,0.2h-5.5c-0.1,0-0.2,0-0.3-0.1c-0.1,0-0.2-0.1-0.3-0.2s-0.1-0.2-0.1-0.3
			c0-0.1,0-0.3,0.1-0.4L194.5,4.9z M196.4,18.9h2.8c0.2,0,0.4-0.1,0.5-0.2c0.1-0.1,0.1-0.3,0-0.5c-0.2-0.5-0.5-1.2-0.8-1.9
			c-0.3-0.7-0.6-1.4-0.8-2c-0.1-0.2-0.2-0.3-0.3-0.3c-0.1,0-0.2,0.1-0.3,0.3l-1.6,3.9c-0.1,0.2-0.1,0.4,0,0.5
			C196,18.8,196.1,18.9,196.4,18.9z"/>
		<path class="st1" d="M218.5,27.6h-4.8c-0.2,0-0.4-0.1-0.6-0.2c-0.1-0.1-0.2-0.3-0.2-0.5V5c0-0.2,0.1-0.4,0.2-0.5
			c0.1-0.1,0.3-0.2,0.6-0.2h4.8c0.2,0,0.4,0.1,0.5,0.2s0.2,0.3,0.2,0.5v21.9c0,0.2-0.1,0.4-0.2,0.5S218.7,27.6,218.5,27.6z"/>
		<path class="st1" d="M241,22.5v4.4c0,0.2-0.1,0.4-0.2,0.5c-0.1,0.1-0.3,0.2-0.5,0.2h-16c-0.2,0-0.4-0.1-0.6-0.2s-0.2-0.3-0.2-0.5
			V5c0-0.2,0.1-0.4,0.2-0.5c0.1-0.1,0.3-0.2,0.6-0.2h4.8c0.2,0,0.4,0.1,0.5,0.2c0.1,0.1,0.2,0.3,0.2,0.5v16c0,0.2,0.1,0.4,0.2,0.5
			c0.1,0.1,0.3,0.2,0.6,0.2h9.6c0.2,0,0.4,0.1,0.5,0.2C241,22.1,241,22.3,241,22.5z"/>
		<path class="st1" d="M245.2,19.6c1.2,0.7,2.3,1.3,3.4,1.8c1.1,0.4,2.2,0.6,3.2,0.6c0.9,0,1.7-0.1,2.1-0.4c0.5-0.3,0.7-0.7,0.7-1.2
			c0-0.3-0.1-0.5-0.3-0.7c-0.2-0.2-0.5-0.3-0.8-0.4c-0.4-0.1-0.8-0.2-1.2-0.3c-0.5-0.1-0.9-0.1-1.4-0.3c-0.5-0.1-1-0.2-1.6-0.3
			c-0.6-0.1-1.3-0.3-1.9-0.5c-0.7-0.2-1.3-0.5-2-0.8c-0.7-0.3-1.2-0.8-1.7-1.3c-0.5-0.5-0.9-1.2-1.2-1.9c-0.3-0.7-0.5-1.6-0.5-2.6
			c0-1.5,0.3-2.7,0.9-3.6c0.6-1,1.3-1.7,2.2-2.3c0.9-0.6,1.9-1,3-1.2c1.1-0.2,2.1-0.3,3.2-0.3c1.8,0,3.4,0.3,4.8,0.8
			c1.4,0.5,2.8,1.3,4.1,2.3c0.2,0.1,0.3,0.3,0.3,0.5c0,0.2,0,0.4-0.2,0.6l-2.5,3.6c-0.1,0.2-0.3,0.3-0.5,0.3c-0.2,0-0.4,0-0.6-0.1
			c-1.1-0.7-2.1-1.2-3-1.5c-0.9-0.3-1.8-0.4-2.6-0.4c-0.2,0-0.5,0-0.8,0c-0.3,0-0.6,0.1-0.9,0.1s-0.5,0.2-0.7,0.4s-0.3,0.4-0.3,0.7
			c0,0.3,0.2,0.6,0.7,0.8c0.4,0.2,1,0.4,1.5,0.6c0.6,0.2,1.1,0.3,1.7,0.4s0.9,0.2,1,0.2c0.8,0.1,1.6,0.4,2.5,0.7
			c0.9,0.3,1.8,0.7,2.6,1.3s1.5,1.3,2,2.2c0.5,0.9,0.8,2,0.8,3.4c0,1.3-0.2,2.4-0.7,3.3c-0.4,0.9-1.1,1.7-1.9,2.3s-1.8,1-2.9,1.3
			c-1.1,0.3-2.4,0.4-3.7,0.4c-1.1,0-2.1-0.1-3.1-0.3c-1-0.2-1.9-0.4-2.7-0.8c-0.8-0.3-1.6-0.7-2.3-1.1c-0.7-0.4-1.4-0.9-2-1.4
			c-0.2-0.1-0.3-0.3-0.3-0.5c0-0.2,0-0.4,0.2-0.6l2.5-3.6c0.1-0.2,0.3-0.3,0.5-0.3C244.9,19.5,245.1,19.5,245.2,19.6z"/>
		<path class="st1" d="M289.8,27.8l-1.7-1.8c-0.2-0.2-0.4-0.3-0.6-0.3c-0.2,0-0.4,0.1-0.6,0.2c-0.5,0.4-1,0.8-1.5,1.1
			c-0.5,0.3-1,0.5-1.5,0.6c-0.5,0.1-0.9,0.2-1.3,0.3c-0.4,0-0.8,0.1-1.1,0.1c-2.1,0-3.8-0.5-5.2-1.6c-1.3-1.1-2.1-2.5-2.3-4.4
			c-0.2-1.3,0-2.5,0.5-3.5c0.5-1,1.3-1.9,2.3-2.8c0,0,0.1-0.1,0.2-0.1c0.1-0.1,0.2-0.2,0.4-0.3c0.2-0.1,0.3-0.3,0.3-0.5
			c0-0.2,0-0.4-0.1-0.6c-0.9-1.5-1.2-3.1-1-4.7c0.1-0.8,0.4-1.6,0.8-2.3s0.9-1.3,1.5-1.8c0.6-0.5,1.3-0.9,2-1.2
			c0.7-0.3,1.5-0.4,2.3-0.4c1.2,0,2.4,0.3,3.5,0.9c1.1,0.6,1.9,1.5,2.4,2.6c0.3,0.8,0.5,1.5,0.5,2.3c0,0.8-0.1,1.5-0.3,2.2
			c-0.2,0.7-0.6,1.4-1,2c-0.4,0.6-1,1.2-1.6,1.6c-0.2,0.1-0.3,0.3-0.3,0.5c0,0.2,0,0.4,0.2,0.5l0.5,0.5c0.1,0.2,0.3,0.2,0.5,0.2
			c0.2,0,0.3-0.1,0.4-0.3c0.2-0.4,0.4-0.7,0.6-1c0.2-0.3,0.3-0.6,0.4-0.8c0.1-0.2,0.3-0.3,0.4-0.4c0.2-0.1,0.4-0.1,0.6,0l3.5,1.5
			c0.2,0.1,0.3,0.2,0.4,0.4c0.1,0.2,0.1,0.4,0,0.6c-0.2,0.4-0.5,0.9-0.9,1.5c-0.4,0.6-0.8,1.3-1.3,2c-0.1,0.2-0.2,0.4-0.2,0.6
			c0,0.2,0.1,0.4,0.2,0.6c0.4,0.4,0.7,0.8,1.1,1.1s0.7,0.7,1,1.1c0.1,0.2,0.2,0.4,0.2,0.6c0,0.2-0.1,0.4-0.3,0.5l-2.9,2.6
			c-0.2,0.1-0.4,0.2-0.6,0.2C290.1,28,290,27.9,289.8,27.8z M280.4,19.1c-0.3,0.2-0.5,0.4-0.7,0.8c-0.2,0.4-0.3,0.8-0.1,1.5
			c0.1,0.5,0.3,0.9,0.6,1.1s0.6,0.4,1,0.5c0.4,0.1,0.8,0,1.2-0.1c0.4-0.1,0.8-0.3,1.1-0.5c0.2-0.1,0.2-0.3,0.2-0.5
			c0-0.2-0.1-0.4-0.2-0.6l-1.9-1.9c-0.1-0.2-0.3-0.3-0.6-0.3C280.8,18.9,280.6,19,280.4,19.1z M283.2,11.8c0.4-0.3,0.7-0.6,0.8-0.9
			c0.2-0.4,0.2-0.7,0.2-1s-0.1-0.6-0.3-0.8c-0.2-0.2-0.5-0.3-0.8-0.3c-0.3,0-0.5,0.1-0.8,0.3c-0.2,0.2-0.4,0.5-0.5,1
			c0,0.2,0,0.5,0,0.8c0.1,0.3,0.1,0.5,0.3,0.8c0.1,0.2,0.2,0.3,0.5,0.4C282.9,12,283,11.9,283.2,11.8z"/>
		<path class="st1" d="M324.2,15.6c0.3,0.2,0.7,0.4,1,0.7c0.3,0.3,0.7,0.6,0.9,1c0.3,0.4,0.5,0.9,0.7,1.4c0.2,0.5,0.3,1.1,0.3,1.8
			c0,1.4-0.2,2.5-0.7,3.4c-0.4,0.9-1,1.6-1.8,2.2c-0.7,0.5-1.6,0.9-2.6,1.2s-2,0.3-3.1,0.3h-10.1c-0.2,0-0.4-0.1-0.5-0.2
			s-0.2-0.3-0.2-0.5V5c0-0.2,0.1-0.4,0.2-0.5c0.1-0.1,0.3-0.2,0.5-0.2h9.7c1,0,2,0.1,2.9,0.3c0.9,0.2,1.8,0.6,2.5,1.1
			c0.7,0.5,1.3,1.2,1.7,2c0.4,0.8,0.7,1.8,0.7,3c0,1-0.2,1.8-0.7,2.5c-0.5,0.7-1,1.3-1.6,1.7C323.7,15.1,323.8,15.4,324.2,15.6z
			 M315.3,13.1h3c0.4,0,0.8-0.2,1-0.5c0.3-0.3,0.4-0.7,0.4-1.1c0-0.4-0.2-0.7-0.5-1s-0.6-0.4-0.9-0.4h-3c-0.2,0-0.4,0.1-0.5,0.2
			s-0.2,0.3-0.2,0.5v1.5c0,0.2,0.1,0.4,0.2,0.5S315,13.1,315.3,13.1z M318.6,18.4h-3.4c-0.2,0-0.4,0.1-0.5,0.2
			c-0.1,0.2-0.2,0.3-0.2,0.5V21c0,0.2,0.1,0.4,0.2,0.5c0.1,0.1,0.3,0.2,0.5,0.2h3.6c0.4,0,0.7-0.2,1.1-0.5c0.3-0.3,0.5-0.7,0.5-1.1
			c0-0.4-0.2-0.8-0.5-1.2C319.6,18.6,319.2,18.4,318.6,18.4z"/>
		<path class="st1" d="M336.5,4.9c0.1-0.2,0.2-0.4,0.4-0.5c0.2-0.1,0.4-0.2,0.7-0.2h4.5c0.2,0,0.4,0.1,0.6,0.2s0.3,0.3,0.4,0.5
			l9.3,21.8c0.1,0.2,0.1,0.4,0,0.6c-0.1,0.2-0.3,0.3-0.7,0.3h-5.5c-0.2,0-0.5-0.1-0.7-0.2s-0.4-0.3-0.5-0.5l-0.9-1.9
			c-0.1-0.2-0.3-0.4-0.5-0.5c-0.2-0.1-0.4-0.2-0.6-0.2h-6.8c-0.2,0-0.5,0.1-0.7,0.2c-0.2,0.1-0.3,0.3-0.4,0.5l-0.9,1.9
			c-0.1,0.2-0.2,0.4-0.4,0.5c-0.2,0.1-0.4,0.2-0.6,0.2h-5.5c-0.1,0-0.2,0-0.3-0.1c-0.1,0-0.2-0.1-0.3-0.2c-0.1-0.1-0.1-0.2-0.1-0.3
			c0-0.1,0-0.3,0.1-0.4L336.5,4.9z M338.4,18.9h2.8c0.2,0,0.4-0.1,0.5-0.2s0.1-0.3,0-0.5c-0.2-0.5-0.5-1.2-0.8-1.9
			c-0.3-0.7-0.6-1.4-0.8-2c-0.1-0.2-0.2-0.3-0.3-0.3s-0.2,0.1-0.3,0.3l-1.6,3.9c-0.1,0.2-0.1,0.4,0,0.5
			C338,18.8,338.1,18.9,338.4,18.9z"/>
		<path class="st1" d="M376.7,5v21.9c0,0.2-0.1,0.4-0.2,0.5s-0.3,0.2-0.5,0.2h-4.7c-0.2,0-0.4-0.1-0.7-0.2c-0.2-0.1-0.4-0.3-0.5-0.4
			l-8.3-11.7c-0.1-0.2-0.3-0.2-0.4-0.2c-0.1,0-0.2,0.2-0.2,0.4v11.5c0,0.2-0.1,0.4-0.2,0.5c-0.1,0.1-0.3,0.2-0.5,0.2h-4.8
			c-0.2,0-0.4-0.1-0.5-0.2c-0.2-0.1-0.2-0.3-0.2-0.5V5c0-0.2,0.1-0.4,0.2-0.5c0.1-0.1,0.3-0.2,0.5-0.2h4.8c0.2,0,0.4,0.1,0.7,0.2
			c0.2,0.1,0.4,0.3,0.5,0.4l8.3,11.7c0.1,0.2,0.3,0.2,0.4,0.2s0.2-0.1,0.2-0.4V5c0-0.2,0.1-0.4,0.2-0.5c0.1-0.1,0.3-0.2,0.5-0.2h4.7
			c0.2,0,0.4,0.1,0.5,0.2C376.6,4.6,376.7,4.8,376.7,5z"/>
		<path class="st1" d="M403.5,5v21.9c0,0.2-0.1,0.4-0.2,0.5s-0.3,0.2-0.5,0.2H398c-0.2,0-0.4-0.1-0.7-0.2c-0.2-0.1-0.4-0.3-0.5-0.4
			l-8.3-11.7c-0.1-0.2-0.3-0.2-0.4-0.2c-0.1,0-0.2,0.2-0.2,0.4v11.5c0,0.2-0.1,0.4-0.2,0.5c-0.1,0.1-0.3,0.2-0.5,0.2h-4.8
			c-0.2,0-0.4-0.1-0.5-0.2c-0.2-0.1-0.2-0.3-0.2-0.5V5c0-0.2,0.1-0.4,0.2-0.5c0.1-0.1,0.3-0.2,0.5-0.2h4.8c0.2,0,0.4,0.1,0.7,0.2
			c0.2,0.1,0.4,0.3,0.5,0.4l8.3,11.7c0.1,0.2,0.3,0.2,0.4,0.2s0.2-0.1,0.2-0.4V5c0-0.2,0.1-0.4,0.2-0.5c0.1-0.1,0.3-0.2,0.5-0.2h4.7
			c0.2,0,0.4,0.1,0.5,0.2C403.4,4.6,403.5,4.8,403.5,5z"/>
		<path class="st1" d="M414.6,10.9v1.3c0,0.2,0.1,0.4,0.2,0.5s0.3,0.2,0.5,0.2h8.7c0.2,0,0.4,0.1,0.5,0.2s0.2,0.3,0.2,0.5v4.4
			c0,0.2-0.1,0.4-0.2,0.5s-0.3,0.2-0.5,0.2h-8.7c-0.2,0-0.4,0.1-0.5,0.2c-0.1,0.2-0.2,0.3-0.2,0.5v1.2c0,0.2,0.1,0.4,0.2,0.5
			s0.3,0.2,0.5,0.2h10c0.2,0,0.4,0.1,0.5,0.2s0.2,0.3,0.2,0.5v4.4c0,0.2-0.1,0.4-0.2,0.5s-0.3,0.2-0.5,0.2H409
			c-0.2,0-0.4-0.1-0.5-0.2s-0.2-0.3-0.2-0.5V5c0-0.2,0.1-0.4,0.2-0.5c0.1-0.1,0.3-0.2,0.5-0.2h16.3c0.2,0,0.4,0.1,0.5,0.2
			c0.1,0.1,0.2,0.3,0.2,0.5v4.4c0,0.2-0.1,0.4-0.2,0.5s-0.3,0.2-0.5,0.2h-10c-0.2,0-0.4,0.1-0.5,0.2S414.6,10.7,414.6,10.9z"/>
		<path class="st1" d="M435.8,27.6H431c-0.2,0-0.4-0.1-0.5-0.2c-0.2-0.1-0.2-0.3-0.2-0.5V5c0-0.2,0.1-0.4,0.2-0.5
			c0.1-0.1,0.3-0.2,0.5-0.2h10c1.2,0,2.4,0.2,3.4,0.6c1,0.4,1.9,1,2.7,1.7c0.7,0.7,1.3,1.6,1.7,2.7c0.4,1,0.6,2.2,0.6,3.4
			c0,0.7-0.1,1.4-0.2,2c-0.2,0.7-0.4,1.3-0.7,1.9c-0.3,0.6-0.7,1.1-1.1,1.6c-0.4,0.5-0.9,0.9-1.4,1.2c-0.2,0.1-0.3,0.3-0.3,0.5
			c-0.1,0.2,0,0.4,0.1,0.5c0.8,1.1,1.7,2.2,2.6,3.3c0.9,1.1,1.7,2.2,2.4,3.1c0.1,0.2,0.2,0.4,0.1,0.6c-0.1,0.2-0.2,0.3-0.4,0.3h-6
			c-0.2,0-0.4-0.1-0.7-0.2s-0.4-0.3-0.6-0.4c-0.7-0.9-1.4-1.8-2-2.7c-0.7-0.9-1.3-1.8-2-2.8c-0.1-0.2-0.3-0.3-0.5-0.4
			s-0.5-0.2-0.7-0.2h-0.7c-0.2,0-0.4,0.1-0.5,0.2c-0.1,0.1-0.2,0.3-0.2,0.5v5.2c0,0.2-0.1,0.4-0.2,0.5
			C436.2,27.6,436,27.6,435.8,27.6z M437.3,15h3.4c0.3,0,0.5,0,0.8-0.1c0.3-0.1,0.5-0.2,0.8-0.4c0.2-0.2,0.4-0.5,0.6-0.8
			c0.1-0.3,0.2-0.7,0.2-1.1c0-0.2,0-0.5-0.1-0.8s-0.2-0.6-0.4-0.8c-0.2-0.3-0.4-0.5-0.7-0.7c-0.3-0.2-0.7-0.3-1.1-0.3h-3.4
			c-0.2,0-0.4,0.1-0.5,0.2c-0.1,0.1-0.2,0.3-0.2,0.5v3.4c0,0.2,0.1,0.4,0.2,0.5C436.9,15,437.1,15,437.3,15z"/>
		<path class="st1" d="M455.9,19.6c1.2,0.7,2.3,1.3,3.4,1.8c1.1,0.4,2.2,0.6,3.2,0.6c0.9,0,1.7-0.1,2.1-0.4c0.5-0.3,0.7-0.7,0.7-1.2
			c0-0.3-0.1-0.5-0.3-0.7c-0.2-0.2-0.5-0.3-0.8-0.4c-0.4-0.1-0.8-0.2-1.2-0.3c-0.5-0.1-0.9-0.1-1.4-0.3c-0.5-0.1-1-0.2-1.6-0.3
			c-0.6-0.1-1.3-0.3-1.9-0.5c-0.7-0.2-1.3-0.5-2-0.8c-0.7-0.3-1.2-0.8-1.7-1.3c-0.5-0.5-0.9-1.2-1.2-1.9c-0.3-0.7-0.5-1.6-0.5-2.6
			c0-1.5,0.3-2.7,0.9-3.6c0.6-1,1.3-1.7,2.2-2.3c0.9-0.6,1.9-1,3-1.2c1.1-0.2,2.1-0.3,3.2-0.3c1.8,0,3.4,0.3,4.8,0.8
			c1.4,0.5,2.8,1.3,4.1,2.3c0.2,0.1,0.3,0.3,0.3,0.5c0,0.2,0,0.4-0.2,0.6l-2.5,3.6c-0.1,0.2-0.3,0.3-0.5,0.3s-0.4,0-0.6-0.1
			c-1.1-0.7-2.1-1.2-3-1.5c-0.9-0.3-1.8-0.4-2.6-0.4c-0.2,0-0.5,0-0.8,0c-0.3,0-0.6,0.1-0.9,0.1c-0.3,0.1-0.5,0.2-0.7,0.4
			s-0.3,0.4-0.3,0.7c0,0.3,0.2,0.6,0.7,0.8s1,0.4,1.5,0.6c0.6,0.2,1.1,0.3,1.7,0.4c0.5,0.1,0.9,0.2,1,0.2c0.8,0.1,1.6,0.4,2.5,0.7
			c0.9,0.3,1.8,0.7,2.6,1.3c0.8,0.6,1.5,1.3,2,2.2c0.5,0.9,0.8,2,0.8,3.4c0,1.3-0.2,2.4-0.7,3.3c-0.4,0.9-1.1,1.7-1.9,2.3
			c-0.8,0.6-1.8,1-2.9,1.3c-1.1,0.3-2.4,0.4-3.7,0.4c-1.1,0-2.1-0.1-3.1-0.3c-1-0.2-1.9-0.4-2.7-0.8c-0.8-0.3-1.6-0.7-2.3-1.1
			c-0.7-0.4-1.4-0.9-2-1.4c-0.2-0.1-0.3-0.3-0.3-0.5s0-0.4,0.2-0.6l2.5-3.6c0.1-0.2,0.3-0.3,0.5-0.3
			C455.5,19.5,455.7,19.5,455.9,19.6z"/>
	</g>
</g>
</svg>
