<?xml version="1.0" encoding="utf-8"?>
<!-- Generator: Adobe Illustrator 26.3.1, SVG Export Plug-In . SVG Version: 6.00 Build 0)  -->
<svg version="1.1" id="Layer_2_00000145746432839836831380000008561840132816621217_"
	 xmlns="http://www.w3.org/2000/svg" xmlns:xlink="http://www.w3.org/1999/xlink" x="0px" y="0px" viewBox="0 0 483.2 31.1"
	 style="enable-background:new 0 0 483.2 31.1;" xml:space="preserve">
<style type="text/css">
	.st0{enable-background:new    ;}
	.st1{fill:#283C4F;}
</style>
<g id="Layer_1-2">
	<g class="st0">
		<path class="st1" d="M66.6,21.5c-0.6,1-1.3,1.9-2,2.7C63.8,25,63,25.7,62,26.3c-0.9,0.6-2,1-3.1,1.3c-1.1,0.3-2.4,0.5-3.7,0.5
			c-1.7,0-3.3-0.3-4.8-1c-1.5-0.6-2.8-1.5-3.9-2.6c-1.1-1.1-2-2.4-2.6-3.8c-0.6-1.5-1-3-1-4.7c0-1.7,0.3-3.2,1-4.7
			c0.6-1.5,1.5-2.8,2.6-3.8c1.1-1.1,2.4-2,3.9-2.6c1.5-0.6,3.1-1,4.8-1c1.4,0,2.7,0.2,3.8,0.5c1.1,0.3,2.2,0.8,3.1,1.3
			C63,6.3,63.8,7,64.6,7.8c0.7,0.8,1.4,1.7,2,2.7c0.1,0.2,0.1,0.4,0.1,0.5c-0.1,0.2-0.2,0.3-0.4,0.4l-4.5,1.8
			c-0.2,0.1-0.4,0.1-0.6,0c-0.2-0.1-0.4-0.2-0.5-0.4c-0.6-1-1.4-1.7-2.2-2.3c-0.9-0.5-1.9-0.8-3.2-0.8c-0.8,0-1.6,0.2-2.3,0.5
			s-1.3,0.8-1.9,1.4c-0.5,0.6-0.9,1.2-1.2,2s-0.4,1.5-0.4,2.3c0,0.8,0.1,1.6,0.4,2.3c0.3,0.7,0.7,1.4,1.2,1.9s1.2,1,1.9,1.3
			s1.5,0.5,2.3,0.5c1.2,0,2.2-0.3,3.2-0.8c0.9-0.6,1.7-1.3,2.3-2.2c0.1-0.2,0.3-0.3,0.5-0.4c0.2-0.1,0.4-0.1,0.6,0l4.5,1.8
			c0.2,0.1,0.3,0.2,0.4,0.4C66.7,21.1,66.7,21.3,66.6,21.5z"/>
		<path class="st1" d="M73.9,5c0.1-0.2,0.2-0.4,0.4-0.5s0.4-0.2,0.7-0.2h4.5c0.2,0,0.4,0.1,0.6,0.2c0.2,0.1,0.3,0.3,0.4,0.5
			l9.3,21.8c0.1,0.2,0.1,0.4,0,0.6c-0.1,0.2-0.3,0.3-0.7,0.3h-5.5c-0.2,0-0.5-0.1-0.7-0.2c-0.2-0.1-0.4-0.3-0.5-0.5L81.7,25
			c-0.1-0.2-0.3-0.4-0.5-0.5c-0.2-0.1-0.4-0.2-0.6-0.2h-6.8c-0.2,0-0.5,0.1-0.7,0.2c-0.2,0.1-0.3,0.3-0.4,0.5L71.9,27
			c-0.1,0.2-0.2,0.4-0.4,0.5c-0.2,0.1-0.4,0.2-0.6,0.2h-5.5c-0.1,0-0.2,0-0.3-0.1c-0.1,0-0.2-0.1-0.3-0.2s-0.1-0.2-0.1-0.3
			c0-0.1,0-0.3,0.1-0.4L73.9,5z M75.8,18.9h2.8c0.2,0,0.4-0.1,0.5-0.2c0.1-0.1,0.1-0.3,0-0.5c-0.2-0.5-0.5-1.2-0.8-1.9
			c-0.3-0.7-0.6-1.4-0.8-2c-0.1-0.2-0.2-0.3-0.3-0.3c-0.1,0-0.2,0.1-0.3,0.3l-1.6,3.9c-0.1,0.2-0.1,0.4,0,0.5
			C75.4,18.8,75.6,18.9,75.8,18.9z"/>
		<path class="st1" d="M95.5,27.7h-4.8c-0.2,0-0.4-0.1-0.5-0.2S90,27.1,90,26.9V5c0-0.2,0.1-0.4,0.2-0.5c0.1-0.1,0.3-0.2,0.5-0.2h10
			c1.2,0,2.4,0.2,3.4,0.6s1.9,1,2.7,1.7c0.7,0.7,1.3,1.6,1.7,2.7c0.4,1,0.6,2.2,0.6,3.4c0,0.7-0.1,1.4-0.2,2
			c-0.2,0.7-0.4,1.3-0.7,1.9c-0.3,0.6-0.7,1.1-1.1,1.6c-0.4,0.5-0.9,0.9-1.4,1.2c-0.2,0.1-0.3,0.3-0.3,0.5c-0.1,0.2,0,0.4,0.1,0.5
			c0.8,1.1,1.7,2.2,2.6,3.3s1.7,2.2,2.4,3.1c0.1,0.2,0.2,0.4,0.1,0.6s-0.2,0.3-0.4,0.3h-6c-0.2,0-0.4-0.1-0.7-0.2
			c-0.2-0.1-0.4-0.3-0.6-0.4c-0.7-0.9-1.4-1.8-2-2.7c-0.7-0.9-1.3-1.8-2-2.8c-0.1-0.2-0.3-0.3-0.5-0.4S98,21,97.8,21h-0.7
			c-0.2,0-0.4,0.1-0.5,0.2c-0.1,0.1-0.2,0.3-0.2,0.5v5.2c0,0.2-0.1,0.4-0.2,0.5S95.8,27.7,95.5,27.7z M97.1,15.1h3.4
			c0.3,0,0.5,0,0.8-0.1c0.3-0.1,0.5-0.2,0.8-0.4c0.2-0.2,0.4-0.5,0.6-0.8c0.1-0.3,0.2-0.7,0.2-1.1c0-0.2,0-0.5-0.1-0.8
			c-0.1-0.3-0.2-0.6-0.4-0.8c-0.2-0.3-0.4-0.5-0.7-0.7c-0.3-0.2-0.7-0.3-1.1-0.3h-3.4c-0.2,0-0.4,0.1-0.5,0.2
			c-0.1,0.1-0.2,0.3-0.2,0.5v3.4c0,0.2,0.1,0.4,0.2,0.5C96.7,15,96.9,15.1,97.1,15.1z"/>
		<path class="st1" d="M112.1,26.9V5c0-0.2,0.1-0.4,0.2-0.5c0.1-0.1,0.3-0.2,0.5-0.2h8.7c3.3,0,6.1,1,8.2,2.9c1.2,1.1,2,2.3,2.6,3.8
			c0.6,1.5,0.9,3.1,0.9,5c0,1.8-0.3,3.5-0.9,5c-0.6,1.5-1.5,2.8-2.6,3.8c-1.1,1-2.3,1.7-3.7,2.2c-1.4,0.5-2.9,0.7-4.6,0.7h-8.7
			c-0.2,0-0.4-0.1-0.5-0.2C112.2,27.3,112.1,27.1,112.1,26.9z M119.2,21.8h2.4c0.6,0,1.2-0.1,1.9-0.2c0.6-0.1,1.2-0.4,1.7-0.8
			c0.5-0.4,0.9-1,1.3-1.8c0.3-0.8,0.5-1.7,0.5-3c0-1.2-0.2-2.2-0.5-3c-0.3-0.8-0.8-1.3-1.3-1.8s-1.1-0.7-1.7-0.8
			c-0.6-0.1-1.2-0.2-1.8-0.2h-2.4c-0.2,0-0.4,0.1-0.5,0.2c-0.1,0.1-0.2,0.3-0.2,0.5v10c0,0.2,0.1,0.4,0.2,0.5
			C118.8,21.7,119,21.8,119.2,21.8z"/>
		<path class="st1" d="M138.1,19.6c1.2,0.7,2.3,1.3,3.4,1.8c1.1,0.4,2.2,0.6,3.2,0.6c0.9,0,1.7-0.1,2.1-0.4c0.5-0.3,0.7-0.7,0.7-1.2
			c0-0.3-0.1-0.5-0.3-0.7c-0.2-0.2-0.5-0.3-0.8-0.4c-0.4-0.1-0.8-0.2-1.2-0.3c-0.5-0.1-0.9-0.1-1.4-0.3c-0.5-0.1-1-0.2-1.6-0.3
			c-0.6-0.1-1.3-0.3-1.9-0.5c-0.7-0.2-1.3-0.5-2-0.8c-0.7-0.3-1.2-0.8-1.7-1.3c-0.5-0.5-0.9-1.2-1.2-1.9c-0.3-0.7-0.5-1.6-0.5-2.6
			c0-1.5,0.3-2.7,0.9-3.6c0.6-1,1.3-1.7,2.2-2.3c0.9-0.6,1.9-1,3-1.2c1.1-0.2,2.1-0.3,3.2-0.3c1.8,0,3.4,0.3,4.8,0.8
			c1.4,0.5,2.8,1.3,4.1,2.3c0.2,0.1,0.3,0.3,0.3,0.5c0,0.2,0,0.4-0.2,0.6l-2.5,3.6c-0.1,0.2-0.3,0.3-0.5,0.3c-0.2,0-0.4,0-0.6-0.1
			c-1.1-0.7-2.1-1.2-3-1.5c-0.9-0.3-1.8-0.4-2.6-0.4c-0.2,0-0.5,0-0.8,0c-0.3,0-0.6,0.1-0.9,0.1s-0.5,0.2-0.7,0.4s-0.3,0.4-0.3,0.7
			c0,0.3,0.2,0.6,0.7,0.8c0.4,0.2,1,0.4,1.5,0.6c0.6,0.2,1.1,0.3,1.7,0.4s0.9,0.2,1,0.2c0.8,0.1,1.6,0.4,2.5,0.7
			c0.9,0.3,1.8,0.7,2.6,1.3c0.8,0.6,1.5,1.3,2,2.2c0.5,0.9,0.8,2,0.8,3.4c0,1.3-0.2,2.4-0.7,3.3c-0.4,0.9-1.1,1.7-1.9,2.3
			c-0.8,0.6-1.8,1-2.9,1.3s-2.4,0.4-3.7,0.4c-1.1,0-2.1-0.1-3.1-0.3c-1-0.2-1.9-0.4-2.7-0.8c-0.8-0.3-1.6-0.7-2.3-1.1
			c-0.7-0.4-1.4-0.9-2-1.4c-0.2-0.1-0.3-0.3-0.3-0.5c0-0.2,0-0.4,0.2-0.6l2.5-3.6c0.1-0.2,0.3-0.3,0.5-0.3
			C137.7,19.5,137.9,19.5,138.1,19.6z"/>
		<path class="st1" d="M156.8,31.1c-0.2,0.1-0.4,0.1-0.6,0c-0.2-0.1-0.3-0.3-0.4-0.4l-0.7-1.7c-0.1-0.2-0.1-0.4,0-0.6
			c0.1-0.2,0.2-0.3,0.4-0.4c0.1,0,0.2-0.1,0.2-0.1c0.1,0,0.1,0,0.2-0.1c0.4-0.2,0.4-0.4,0.1-0.7c-0.6-0.5-1-1.3-1-2.3
			c0-0.4,0-0.9,0.2-1.3c0.1-0.4,0.4-0.8,0.7-1.1c0.3-0.3,0.6-0.6,1-0.7c0.4-0.2,0.8-0.3,1.3-0.3c0.8,0,1.6,0.2,2.2,0.7
			c0.6,0.5,1,1.1,1.2,2c0.1,0.2,0.1,0.4,0.1,0.6c0,0.2,0,0.5,0,0.7c0,0.6-0.1,1.2-0.3,1.7c-0.2,0.6-0.5,1.1-0.9,1.6
			c-0.4,0.5-0.9,1-1.5,1.4C158.3,30.5,157.6,30.8,156.8,31.1z"/>
		<path class="st1" d="M190.4,22.6v4.4c0,0.2-0.1,0.4-0.2,0.5c-0.1,0.1-0.3,0.2-0.5,0.2h-16c-0.2,0-0.4-0.1-0.6-0.2
			s-0.2-0.3-0.2-0.5V5c0-0.2,0.1-0.4,0.2-0.5c0.1-0.1,0.3-0.2,0.6-0.2h4.8c0.2,0,0.4,0.1,0.5,0.2c0.1,0.1,0.2,0.3,0.2,0.5v16
			c0,0.2,0.1,0.4,0.2,0.5c0.1,0.1,0.3,0.2,0.6,0.2h9.6c0.2,0,0.4,0.1,0.5,0.2C190.3,22.2,190.4,22.3,190.4,22.6z"/>
		<path class="st1" d="M199.3,5c0.1-0.2,0.2-0.4,0.4-0.5s0.4-0.2,0.7-0.2h4.5c0.2,0,0.4,0.1,0.6,0.2c0.2,0.1,0.3,0.3,0.4,0.5
			l9.3,21.8c0.1,0.2,0.1,0.4,0,0.6c-0.1,0.2-0.3,0.3-0.7,0.3H209c-0.2,0-0.5-0.1-0.7-0.2c-0.2-0.1-0.4-0.3-0.5-0.5L207,25
			c-0.1-0.2-0.3-0.4-0.5-0.5c-0.2-0.1-0.4-0.2-0.6-0.2h-6.8c-0.2,0-0.5,0.1-0.7,0.2c-0.2,0.1-0.3,0.3-0.4,0.5l-0.9,1.9
			c-0.1,0.2-0.2,0.4-0.4,0.5c-0.2,0.1-0.4,0.2-0.6,0.2h-5.5c-0.1,0-0.2,0-0.3-0.1c-0.1,0-0.2-0.1-0.3-0.2s-0.1-0.2-0.1-0.3
			c0-0.1,0-0.3,0.1-0.4L199.3,5z M201.1,18.9h2.8c0.2,0,0.4-0.1,0.5-0.2c0.1-0.1,0.1-0.3,0-0.5c-0.2-0.5-0.5-1.2-0.8-1.9
			c-0.3-0.7-0.6-1.4-0.8-2c-0.1-0.2-0.2-0.3-0.3-0.3c-0.1,0-0.2,0.1-0.3,0.3l-1.6,3.9c-0.1,0.2-0.1,0.4,0,0.5
			C200.7,18.8,200.9,18.9,201.1,18.9z"/>
		<path class="st1" d="M232.5,15.6c0.3,0.2,0.7,0.4,1,0.7c0.3,0.3,0.7,0.6,0.9,1c0.3,0.4,0.5,0.9,0.7,1.4c0.2,0.5,0.3,1.1,0.3,1.8
			c0,1.4-0.2,2.5-0.7,3.4c-0.4,0.9-1,1.6-1.8,2.2c-0.7,0.5-1.6,0.9-2.6,1.2s-2,0.3-3.1,0.3h-10.1c-0.2,0-0.4-0.1-0.5-0.2
			c-0.1-0.1-0.2-0.3-0.2-0.5V5c0-0.2,0.1-0.4,0.2-0.5c0.1-0.1,0.3-0.2,0.5-0.2h9.7c1,0,2,0.1,2.9,0.3c0.9,0.2,1.8,0.6,2.5,1.1
			c0.7,0.5,1.3,1.2,1.7,2c0.4,0.8,0.7,1.8,0.7,3c0,1-0.2,1.8-0.7,2.5s-1,1.3-1.6,1.7C232.1,15.1,232.1,15.4,232.5,15.6z M223.6,13.1
			h3c0.4,0,0.8-0.2,1-0.5c0.3-0.3,0.4-0.7,0.4-1.1c0-0.4-0.2-0.7-0.5-1c-0.3-0.3-0.6-0.4-0.9-0.4h-3c-0.2,0-0.4,0.1-0.5,0.2
			c-0.1,0.1-0.2,0.3-0.2,0.5v1.5c0,0.2,0.1,0.4,0.2,0.5C223.2,13.1,223.4,13.1,223.6,13.1z M227,18.4h-3.4c-0.2,0-0.4,0.1-0.5,0.2
			c-0.1,0.2-0.2,0.3-0.2,0.5V21c0,0.2,0.1,0.4,0.2,0.5c0.1,0.1,0.3,0.2,0.5,0.2h3.6c0.4,0,0.7-0.2,1.1-0.5s0.5-0.7,0.5-1.1
			c0-0.4-0.2-0.8-0.5-1.2C228,18.6,227.5,18.4,227,18.4z"/>
		<path class="st1" d="M244.3,10.9v1.3c0,0.2,0.1,0.4,0.2,0.5c0.1,0.1,0.3,0.2,0.5,0.2h8.7c0.2,0,0.4,0.1,0.5,0.2
			c0.1,0.1,0.2,0.3,0.2,0.5v4.4c0,0.2-0.1,0.4-0.2,0.5c-0.1,0.1-0.3,0.2-0.5,0.2H245c-0.2,0-0.4,0.1-0.5,0.2
			c-0.2,0.2-0.2,0.3-0.2,0.5V21c0,0.2,0.1,0.4,0.2,0.5c0.1,0.1,0.3,0.2,0.5,0.2h10c0.2,0,0.4,0.1,0.5,0.2c0.1,0.1,0.2,0.3,0.2,0.5
			v4.4c0,0.2-0.1,0.4-0.2,0.5c-0.1,0.1-0.3,0.2-0.5,0.2h-16.3c-0.2,0-0.4-0.1-0.5-0.2c-0.1-0.1-0.2-0.3-0.2-0.5V5
			c0-0.2,0.1-0.4,0.2-0.5c0.1-0.1,0.3-0.2,0.5-0.2H255c0.2,0,0.4,0.1,0.5,0.2c0.1,0.1,0.2,0.3,0.2,0.5v4.4c0,0.2-0.1,0.4-0.2,0.5
			c-0.1,0.1-0.3,0.2-0.5,0.2h-10c-0.2,0-0.4,0.1-0.5,0.2C244.4,10.5,244.3,10.7,244.3,10.9z"/>
		<path class="st1" d="M276.3,22.6v4.4c0,0.2-0.1,0.4-0.2,0.5c-0.1,0.1-0.3,0.2-0.5,0.2h-16c-0.2,0-0.4-0.1-0.6-0.2
			s-0.2-0.3-0.2-0.5V5c0-0.2,0.1-0.4,0.2-0.5c0.1-0.1,0.3-0.2,0.6-0.2h4.8c0.2,0,0.4,0.1,0.5,0.2c0.1,0.1,0.2,0.3,0.2,0.5v16
			c0,0.2,0.1,0.4,0.2,0.5c0.1,0.1,0.3,0.2,0.6,0.2h9.6c0.2,0,0.4,0.1,0.5,0.2C276.3,22.2,276.3,22.3,276.3,22.6z"/>
		<path class="st1" d="M280.5,19.6c1.2,0.7,2.3,1.3,3.4,1.8c1.1,0.4,2.2,0.6,3.2,0.6c0.9,0,1.7-0.1,2.1-0.4c0.5-0.3,0.7-0.7,0.7-1.2
			c0-0.3-0.1-0.5-0.3-0.7c-0.2-0.2-0.5-0.3-0.8-0.4c-0.4-0.1-0.8-0.2-1.2-0.3c-0.5-0.1-0.9-0.1-1.4-0.3c-0.5-0.1-1-0.2-1.6-0.3
			c-0.6-0.1-1.3-0.3-1.9-0.5c-0.7-0.2-1.3-0.5-2-0.8c-0.7-0.3-1.2-0.8-1.7-1.3c-0.5-0.5-0.9-1.2-1.2-1.9c-0.3-0.7-0.5-1.6-0.5-2.6
			c0-1.5,0.3-2.7,0.9-3.6c0.6-1,1.3-1.7,2.2-2.3c0.9-0.6,1.9-1,3-1.2c1.1-0.2,2.1-0.3,3.2-0.3c1.8,0,3.4,0.3,4.8,0.8
			c1.4,0.5,2.8,1.3,4.1,2.3c0.2,0.1,0.3,0.3,0.3,0.5c0,0.2,0,0.4-0.2,0.6l-2.5,3.6c-0.1,0.2-0.3,0.3-0.5,0.3s-0.4,0-0.6-0.1
			c-1.1-0.7-2.1-1.2-3-1.5c-0.9-0.3-1.8-0.4-2.6-0.4c-0.2,0-0.5,0-0.8,0c-0.3,0-0.6,0.1-0.9,0.1s-0.5,0.2-0.7,0.4s-0.3,0.4-0.3,0.7
			c0,0.3,0.2,0.6,0.7,0.8c0.4,0.2,1,0.4,1.5,0.6c0.6,0.2,1.1,0.3,1.7,0.4s0.9,0.2,1,0.2c0.8,0.1,1.6,0.4,2.5,0.7
			c0.9,0.3,1.8,0.7,2.6,1.3c0.8,0.6,1.5,1.3,2,2.2c0.5,0.9,0.8,2,0.8,3.4c0,1.3-0.2,2.4-0.7,3.3c-0.4,0.9-1.1,1.7-1.9,2.3
			c-0.8,0.6-1.8,1-2.9,1.3c-1.1,0.3-2.4,0.4-3.7,0.4c-1.1,0-2.1-0.1-3.1-0.3c-1-0.2-1.9-0.4-2.7-0.8c-0.8-0.3-1.6-0.7-2.3-1.1
			c-0.7-0.4-1.4-0.9-2-1.4c-0.2-0.1-0.3-0.3-0.3-0.5c0-0.2,0-0.4,0.2-0.6l2.5-3.6c0.1-0.2,0.3-0.3,0.5-0.3S280.4,19.5,280.5,19.6z"
			/>
		<path class="st1" d="M323.2,27.8l-1.7-1.8c-0.2-0.2-0.4-0.3-0.6-0.3c-0.2,0-0.4,0.1-0.6,0.2c-0.5,0.4-1,0.8-1.5,1.1
			c-0.5,0.3-1,0.5-1.5,0.6c-0.5,0.1-0.9,0.2-1.3,0.3c-0.4,0-0.8,0.1-1.1,0.1c-2.1,0-3.8-0.5-5.2-1.6s-2.1-2.5-2.3-4.4
			c-0.2-1.3,0-2.5,0.5-3.5c0.5-1,1.3-1.9,2.3-2.8c0,0,0.1-0.1,0.2-0.1c0.1-0.1,0.2-0.2,0.4-0.3c0.2-0.1,0.3-0.3,0.3-0.5
			c0-0.2,0-0.4-0.1-0.6c-0.9-1.5-1.2-3.1-1-4.7c0.1-0.8,0.4-1.6,0.8-2.3s0.9-1.3,1.5-1.8c0.6-0.5,1.3-0.9,2-1.2
			c0.7-0.3,1.5-0.4,2.3-0.4c1.2,0,2.4,0.3,3.5,0.9c1.1,0.6,1.9,1.5,2.4,2.6c0.3,0.8,0.5,1.5,0.5,2.3c0,0.8-0.1,1.5-0.3,2.2
			c-0.2,0.7-0.6,1.4-1,2c-0.4,0.6-1,1.2-1.6,1.6c-0.2,0.1-0.3,0.3-0.3,0.5c0,0.2,0,0.4,0.2,0.5l0.5,0.5c0.1,0.2,0.3,0.2,0.5,0.2
			s0.3-0.1,0.4-0.3c0.2-0.4,0.4-0.7,0.6-1c0.2-0.3,0.3-0.6,0.4-0.8c0.1-0.2,0.3-0.3,0.4-0.4c0.2-0.1,0.4-0.1,0.6,0l3.5,1.5
			c0.2,0.1,0.3,0.2,0.4,0.4c0.1,0.2,0.1,0.4,0,0.6c-0.2,0.4-0.5,0.9-0.9,1.5c-0.4,0.6-0.8,1.3-1.3,2c-0.1,0.2-0.2,0.4-0.2,0.6
			c0,0.2,0.1,0.4,0.2,0.6c0.4,0.4,0.7,0.8,1.1,1.1s0.7,0.7,1,1.1c0.1,0.2,0.2,0.4,0.2,0.6c0,0.2-0.1,0.4-0.3,0.5l-2.9,2.6
			c-0.2,0.1-0.4,0.2-0.6,0.2C323.5,28,323.3,27.9,323.2,27.8z M313.8,19.2c-0.3,0.2-0.5,0.4-0.7,0.8c-0.2,0.4-0.3,0.8-0.1,1.5
			c0.1,0.5,0.3,0.9,0.6,1.1s0.6,0.4,1,0.5c0.4,0.1,0.8,0,1.2-0.1c0.4-0.1,0.8-0.3,1.1-0.5c0.2-0.1,0.2-0.3,0.2-0.5
			c0-0.2-0.1-0.4-0.2-0.6l-1.9-1.9c-0.1-0.2-0.3-0.3-0.6-0.3S314,19,313.8,19.2z M316.6,11.8c0.4-0.3,0.7-0.6,0.8-0.9
			c0.2-0.4,0.2-0.7,0.2-1s-0.1-0.6-0.3-0.8c-0.2-0.2-0.5-0.3-0.8-0.3c-0.3,0-0.5,0.1-0.8,0.3c-0.2,0.2-0.4,0.5-0.5,1
			c0,0.2,0,0.5,0,0.8s0.1,0.5,0.3,0.8c0.1,0.2,0.2,0.3,0.5,0.4C316.2,12,316.4,12,316.6,11.8z"/>
		<path class="st1" d="M342.3,19.6c1.2,0.7,2.3,1.3,3.4,1.8c1.1,0.4,2.2,0.6,3.2,0.6c0.9,0,1.7-0.1,2.1-0.4c0.5-0.3,0.7-0.7,0.7-1.2
			c0-0.3-0.1-0.5-0.3-0.7c-0.2-0.2-0.5-0.3-0.8-0.4c-0.4-0.1-0.8-0.2-1.2-0.3c-0.5-0.1-1-0.1-1.4-0.3c-0.5-0.1-1-0.2-1.6-0.3
			c-0.6-0.1-1.3-0.3-1.9-0.5c-0.7-0.2-1.3-0.5-2-0.8c-0.7-0.3-1.2-0.8-1.7-1.3c-0.5-0.5-0.9-1.2-1.2-1.9c-0.3-0.7-0.5-1.6-0.5-2.6
			c0-1.5,0.3-2.7,0.9-3.6c0.6-1,1.3-1.7,2.2-2.3c0.9-0.6,1.9-1,3-1.2c1.1-0.2,2.1-0.3,3.2-0.3c1.8,0,3.4,0.3,4.8,0.8
			c1.4,0.5,2.8,1.3,4.1,2.3c0.2,0.1,0.3,0.3,0.3,0.5c0,0.2,0,0.4-0.2,0.6l-2.5,3.6c-0.1,0.2-0.3,0.3-0.5,0.3c-0.2,0-0.4,0-0.6-0.1
			c-1.1-0.7-2.1-1.2-3-1.5c-0.9-0.3-1.8-0.4-2.6-0.4c-0.2,0-0.5,0-0.8,0c-0.3,0-0.6,0.1-0.9,0.1s-0.5,0.2-0.7,0.4s-0.3,0.4-0.3,0.7
			c0,0.3,0.2,0.6,0.7,0.8s1,0.4,1.5,0.6c0.6,0.2,1.1,0.3,1.7,0.4s0.9,0.2,1,0.2c0.8,0.1,1.6,0.4,2.5,0.7s1.8,0.7,2.6,1.3
			c0.8,0.6,1.5,1.3,2,2.2c0.5,0.9,0.8,2,0.8,3.4c0,1.3-0.2,2.4-0.7,3.3c-0.4,0.9-1.1,1.7-1.9,2.3c-0.8,0.6-1.8,1-2.9,1.3
			c-1.1,0.3-2.4,0.4-3.7,0.4c-1.1,0-2.1-0.1-3.1-0.3c-1-0.2-1.9-0.4-2.7-0.8c-0.8-0.3-1.6-0.7-2.3-1.1c-0.7-0.4-1.4-0.9-2-1.4
			c-0.2-0.1-0.3-0.3-0.3-0.5s0-0.4,0.2-0.6l2.5-3.6c0.1-0.2,0.3-0.3,0.5-0.3C341.9,19.5,342.1,19.5,342.3,19.6z"/>
		<path class="st1" d="M366.2,27.7h-4.8c-0.2,0-0.4-0.1-0.6-0.2c-0.1-0.1-0.2-0.3-0.2-0.5V5c0-0.2,0.1-0.4,0.2-0.5
			c0.1-0.1,0.3-0.2,0.6-0.2h4.8c0.2,0,0.4,0.1,0.5,0.2S367,4.8,367,5v21.9c0,0.2-0.1,0.4-0.2,0.5S366.4,27.7,366.2,27.7z"/>
		<path class="st1" d="M381.6,28.1c-1.7,0-3.3-0.3-4.8-1c-1.5-0.6-2.8-1.5-3.9-2.6c-1.1-1.1-2-2.4-2.7-3.8c-0.7-1.5-1-3-1-4.7
			c0-1.7,0.3-3.2,1-4.7c0.7-1.5,1.5-2.8,2.7-3.9c1.1-1.1,2.4-2,3.9-2.6c1.5-0.6,3.1-1,4.8-1c2.3,0,4.4,0.5,6.1,1.4
			c1.7,1,3.2,2.3,4.2,4c0.1,0.2,0.1,0.4,0.1,0.6c-0.1,0.2-0.2,0.4-0.3,0.5l-3.8,2.5c-0.2,0.1-0.4,0.1-0.6,0.1
			c-0.2,0-0.4-0.1-0.5-0.3c-0.7-0.8-1.4-1.5-2.2-2c-0.8-0.5-1.8-0.7-2.9-0.7c-0.8,0-1.6,0.2-2.3,0.5c-0.7,0.3-1.3,0.8-1.9,1.3
			c-0.5,0.6-1,1.2-1.3,1.9c-0.3,0.7-0.5,1.5-0.5,2.3c0,0.8,0.2,1.6,0.5,2.3c0.3,0.7,0.7,1.4,1.3,1.9c0.5,0.5,1.2,1,1.9,1.3
			c0.7,0.3,1.5,0.5,2.3,0.5c0.8,0,1.6-0.1,2.4-0.4c0.8-0.3,1.4-0.8,1.9-1.5c0.1-0.2,0.1-0.3,0-0.5c-0.1-0.1-0.2-0.2-0.4-0.2h-3.7
			c-0.2,0-0.4-0.1-0.5-0.2c-0.1-0.1-0.2-0.3-0.2-0.5v-3.8c0-0.2,0.1-0.4,0.2-0.5c0.1-0.1,0.3-0.2,0.5-0.2h11c0.2,0,0.4,0.1,0.6,0.2
			s0.3,0.3,0.3,0.6c0,0.4,0.1,0.8,0.1,1.3s0,1.1-0.1,1.6c-0.1,1.5-0.6,2.8-1.2,4.1s-1.6,2.3-2.6,3.3c-1.1,0.9-2.3,1.6-3.7,2.2
			C384.6,27.8,383.1,28.1,381.6,28.1z"/>
		<path class="st1" d="M418.1,5v21.9c0,0.2-0.1,0.4-0.2,0.5c-0.1,0.1-0.3,0.2-0.5,0.2h-4.7c-0.2,0-0.4-0.1-0.7-0.2s-0.4-0.3-0.5-0.4
			L403,15.3c-0.1-0.2-0.3-0.2-0.4-0.2c-0.1,0-0.2,0.2-0.2,0.4v11.5c0,0.2-0.1,0.4-0.2,0.5s-0.3,0.2-0.5,0.2h-4.8
			c-0.2,0-0.4-0.1-0.5-0.2s-0.2-0.3-0.2-0.5V5c0-0.2,0.1-0.4,0.2-0.5c0.1-0.1,0.3-0.2,0.5-0.2h4.8c0.2,0,0.4,0.1,0.7,0.2
			s0.4,0.3,0.5,0.4l8.3,11.7c0.1,0.2,0.3,0.2,0.4,0.2c0.1,0,0.2-0.1,0.2-0.4V5c0-0.2,0.1-0.4,0.2-0.5c0.1-0.1,0.3-0.2,0.5-0.2h4.7
			c0.2,0,0.4,0.1,0.5,0.2C418,4.6,418.1,4.8,418.1,5z"/>
		<path class="st1" d="M424.6,19.6c1.2,0.7,2.3,1.3,3.4,1.8c1.1,0.4,2.2,0.6,3.2,0.6c0.9,0,1.7-0.1,2.1-0.4c0.5-0.3,0.7-0.7,0.7-1.2
			c0-0.3-0.1-0.5-0.3-0.7c-0.2-0.2-0.5-0.3-0.8-0.4c-0.4-0.1-0.8-0.2-1.2-0.3c-0.5-0.1-0.9-0.1-1.4-0.3c-0.5-0.1-1-0.2-1.6-0.3
			c-0.6-0.1-1.3-0.3-1.9-0.5c-0.7-0.2-1.3-0.5-2-0.8c-0.7-0.3-1.2-0.8-1.7-1.3c-0.5-0.5-0.9-1.2-1.2-1.9c-0.3-0.7-0.5-1.6-0.5-2.6
			c0-1.5,0.3-2.7,0.9-3.6c0.6-1,1.3-1.7,2.2-2.3c0.9-0.6,1.9-1,3-1.2c1.1-0.2,2.1-0.3,3.2-0.3c1.8,0,3.4,0.3,4.8,0.8
			c1.4,0.5,2.8,1.3,4.1,2.3c0.2,0.1,0.3,0.3,0.3,0.5c0,0.2,0,0.4-0.2,0.6l-2.5,3.6c-0.1,0.2-0.3,0.3-0.5,0.3s-0.4,0-0.6-0.1
			c-1.1-0.7-2.1-1.2-3-1.5c-0.9-0.3-1.8-0.4-2.6-0.4c-0.2,0-0.5,0-0.8,0c-0.3,0-0.6,0.1-0.9,0.1s-0.5,0.2-0.7,0.4s-0.3,0.4-0.3,0.7
			c0,0.3,0.2,0.6,0.7,0.8c0.4,0.2,1,0.4,1.5,0.6c0.6,0.2,1.1,0.3,1.7,0.4s0.9,0.2,1,0.2c0.8,0.1,1.6,0.4,2.5,0.7
			c0.9,0.3,1.8,0.7,2.6,1.3c0.8,0.6,1.5,1.3,2,2.2c0.5,0.9,0.8,2,0.8,3.4c0,1.3-0.2,2.4-0.7,3.3c-0.4,0.9-1.1,1.7-1.9,2.3
			c-0.8,0.6-1.8,1-2.9,1.3c-1.1,0.3-2.4,0.4-3.7,0.4c-1.1,0-2.1-0.1-3.1-0.3c-1-0.2-1.9-0.4-2.7-0.8c-0.8-0.3-1.6-0.7-2.3-1.1
			c-0.7-0.4-1.4-0.9-2-1.4c-0.2-0.1-0.3-0.3-0.3-0.5c0-0.2,0-0.4,0.2-0.6l2.5-3.6c0.1-0.2,0.3-0.3,0.5-0.3S424.4,19.5,424.6,19.6z"
			/>
	</g>
</g>
</svg>
